# Blender v2.77 (sub 0) OBJ File: ''
# www.blender.org
mtllib my_box.mtl
o cornell_box.lwo
v 5.500000 0.000000 0.000000
v 5.500000 0.000001 -5.500000
v -0.000000 0.000000 0.000000
v -0.000000 0.000001 -5.500000
v 5.500000 5.500001 -5.499999
v -0.000000 5.500001 -5.499999
v -0.000000 5.500000 0.000001
v 5.500000 5.500000 0.000001
v 3.000000 5.500000 -2.499999
v 3.000000 5.500000 -2.999999
v 2.500000 5.500000 -2.499999
v 2.500000 5.500000 -2.999999
vn -1.0000 -0.0000 0.0000
vn 1.0000 0.0000 0.0000
vn 0.0000 1.0000 0.0000
vn 0.0000 -0.0000 1.0000
vn -0.0000 -1.0000 -0.0000
usemtl Cornell_Box_-_Green
s off
f 8//1 5//1 2//1
f 8//1 2//1 1//1
usemtl Cornell_Box_-_Red
f 6//2 7//2 4//2
f 4//2 7//2 3//2
usemtl Cornell_Box_-_White
f 1//3 2//3 3//3
f 2//3 4//3 3//3
f 2//4 5//4 4//4
f 5//4 6//4 4//4
f 9//5 8//5 7//5
f 9//5 5//5 8//5
f 10//5 5//5 9//5
f 6//5 5//5 10//5
f 11//5 9//5 7//5
f 6//5 11//5 7//5
f 6//5 12//5 11//5
f 6//5 10//5 12//5
